<svg id="Layer_1" data-name="Layer 1" xmlns="http://www.w3.org/2000/svg" viewBox="0 0 609.27 625.37"><defs><style>.cls-1{fill:#fff;opacity:0.29;}</style></defs><path class="cls-1" d="M263.5,261.5c1.5-2.5,7.75-1.74,9,0,1.94,2.71-2.13,9.31-5,9C265.49,270.28,262,264,263.5,261.5Z" transform="translate(-15.16 -2.24)"/><path class="cls-1" d="M311.5,128.5c-.25,2.06-11.53,5.44-16,0-3-3.67-2-10.27,0-11,1.45-.52,2.63,2.22,8,6S311.63,127.43,311.5,128.5Z" transform="translate(-15.16 -2.24)"/><path class="cls-1" d="M98.5,262.5c-1.66-3.63,4.23-9.82,7-9s4.48,8.6,1,11C104.1,266.16,99.61,264.94,98.5,262.5Z" transform="translate(-15.16 -2.24)"/><path class="cls-1" d="M250.5,40.5c1.6-1-1-11.5-9-17-2.39-1.64-7.1-4.09-8-3C231.52,22.9,248,42.08,250.5,40.5Z" transform="translate(-15.16 -2.24)"/><path class="cls-1" d="M156.5,158.5c1.09-.78.27-2.6,0-8-.46-9,1.38-12.23,0-13-2.38-1.32-12.38,5.73-11,13C146.59,156.23,154.35,160.05,156.5,158.5Z" transform="translate(-15.16 -2.24)"/><path class="cls-1" d="M15.5,164.5c-1.12,1.23.85,3.29,1.37,10.26.24,3.28-.08,4.31.63,4.74,2.17,1.31,11.22-4.55,10-10C26.39,164.55,17.39,162.43,15.5,164.5Z" transform="translate(-15.16 -2.24)"/><path class="cls-1" d="M21.5,21.46c-1.4.44.89,3.95,2.46,10.79l.32,1.37c.91,4.29.52,5.2,1.22,5.36,1.53.33,7.61-3.13,8-7.35C34,25.79,23.46,20.85,21.5,21.46Z" transform="translate(-15.16 -2.24)"/><path class="cls-1" d="M135.81,60c-1.66-3.64,4.23-9.83,7-9s4.48,8.6,1,11C141.41,63.61,136.93,62.4,135.81,60Z" transform="translate(-15.16 -2.24)"/><path class="cls-1" d="M435.11,430c1.5-2.5,7.76-1.75,9,0,1.94,2.7-2.13,9.31-5,9C437.1,438.79,433.61,432.51,435.11,430Z" transform="translate(-15.16 -2.24)"/><path class="cls-1" d="M483.11,297c-.24,2.06-11.52,5.44-16,0-3-3.67-2-10.27,0-11,1.46-.52,2.64,2.21,8,6S483.24,295.94,483.11,297Z" transform="translate(-15.16 -2.24)"/><path class="cls-1" d="M270.11,431c-1.65-3.63,4.23-9.83,7-9s4.49,8.6,1,11C275.71,434.66,271.23,433.45,270.11,431Z" transform="translate(-15.16 -2.24)"/><path class="cls-1" d="M422.11,209c1.61-1-1-11.5-9-17-2.39-1.64-7.09-4.1-8-3C403.14,191.41,419.61,210.59,422.11,209Z" transform="translate(-15.16 -2.24)"/><path class="cls-1" d="M328.11,327c1.09-.79.28-2.61,0-8-.45-9,1.39-12.24,0-13-2.38-1.32-12.38,5.72-11,13C318.2,324.73,326,328.56,328.11,327Z" transform="translate(-15.16 -2.24)"/><path class="cls-1" d="M187.11,333c-1.12,1.23.86,3.29,1.37,10.26.25,3.28-.08,4.31.63,4.74,2.18,1.31,11.23-4.55,10-10C198,333.06,189,330.94,187.11,333Z" transform="translate(-15.16 -2.24)"/><path class="cls-1" d="M193.11,190c-1.4.43.9,3.94,2.47,10.79.19.85.29,1.28.31,1.37.92,4.29.53,5.2,1.22,5.35,1.53.34,7.61-3.12,8-7.34C205.66,194.29,195.07,189.36,193.11,190Z" transform="translate(-15.16 -2.24)"/><path class="cls-1" d="M307.43,228.46c-1.66-3.63,4.22-9.82,7-9s4.48,8.6,1,11C313,232.12,308.54,230.9,307.43,228.46Z" transform="translate(-15.16 -2.24)"/><path class="cls-1" d="M82.92,599.26c1.5-2.5,7.75-1.74,9,0,1.94,2.71-2.13,9.31-5,9C84.91,608,81.42,601.76,82.92,599.26Z" transform="translate(-15.16 -2.24)"/><path class="cls-1" d="M130.92,466.26c-.24,2.06-11.53,5.44-16,0-3-3.67-2-10.27,0-11,1.45-.52,2.63,2.22,8,6C128.14,464.94,131.05,465.19,130.92,466.26Z" transform="translate(-15.16 -2.24)"/><path class="cls-1" d="M69.92,378.26c1.61-1-1-11.5-9-17-2.39-1.64-7.1-4.09-8-3C50.94,360.66,67.41,379.84,69.92,378.26Z" transform="translate(-15.16 -2.24)"/><path class="cls-1" d="M483.07,547c-.25,2.06-11.53,5.44-16,0-3-3.67-2-10.27,0-11,1.45-.52,2.63,2.21,8,6S483.2,545.94,483.07,547Z" transform="translate(-15.16 -2.24)"/><path class="cls-1" d="M422.07,459c1.6-1-1-11.5-9-17-2.39-1.64-7.1-4.1-8-3C403.09,441.41,419.56,460.59,422.07,459Z" transform="translate(-15.16 -2.24)"/><path class="cls-1" d="M328.07,577c1.08-.79.27-2.61,0-8-.46-9,1.38-12.24,0-13-2.38-1.32-12.39,5.72-11,13C318.16,574.73,325.92,578.56,328.07,577Z" transform="translate(-15.16 -2.24)"/><path class="cls-1" d="M187.07,583c-1.12,1.23.85,3.29,1.37,10.26.24,3.28-.09,4.31.63,4.74,2.17,1.31,11.22-4.55,10-10C198,583.06,189,580.94,187.07,583Z" transform="translate(-15.16 -2.24)"/><path class="cls-1" d="M193.07,440c-1.41.43.89,3.94,2.46,10.79l.32,1.37c.91,4.29.52,5.2,1.22,5.35,1.52.34,7.61-3.12,8-7.34C205.61,444.29,195,439.36,193.07,440Z" transform="translate(-15.16 -2.24)"/><path class="cls-1" d="M307.38,478.46c-1.66-3.63,4.23-9.82,7-9s4.48,8.6,1,11C313,482.12,308.49,480.9,307.38,478.46Z" transform="translate(-15.16 -2.24)"/><path class="cls-1" d="M593.68,627.52c1.61-1-1-11.5-9-17-2.39-1.65-7.09-4.1-8-3C574.7,609.91,591.18,629.1,593.68,627.52Z" transform="translate(-15.16 -2.24)"/><path class="cls-1" d="M364.68,608.48c-1.4.43.9,3.94,2.47,10.78.19.86.29,1.28.31,1.38.92,4.28.53,5.2,1.22,5.35,1.53.34,7.61-3.12,8-7.34C377.23,612.8,366.64,607.87,364.68,608.48Z" transform="translate(-15.16 -2.24)"/><path class="cls-1" d="M465.86,3.84c1.5-2.5,7.75-1.74,9,0,1.94,2.71-2.13,9.32-5,9C467.85,12.62,464.36,6.34,465.86,3.84Z" transform="translate(-15.16 -2.24)"/><path class="cls-1" d="M502.86,260.84c-1.66-3.63,4.23-9.82,7-9s4.48,8.6,1,11C508.46,264.5,504,263.28,502.86,260.84Z" transform="translate(-15.16 -2.24)"/><path class="cls-1" d="M472.47,173.35c-1.65-3.63,4.23-9.82,7-9s4.49,8.6,1,11C478.07,177,473.59,175.79,472.47,173.35Z" transform="translate(-15.16 -2.24)"/><path class="cls-1" d="M530.47,69.35c1.09-.78.28-2.6,0-8-.45-9,1.39-12.23,0-13-2.38-1.32-12.38,5.73-11,13C520.56,67.08,528.32,70.9,530.47,69.35Z" transform="translate(-15.16 -2.24)"/><path class="cls-1" d="M591.47,331.35c-1.12,1.23.86,3.29,1.37,10.26.25,3.28-.08,4.31.63,4.74,2.18,1.31,11.23-4.55,10-10C602.36,331.41,593.36,329.28,591.47,331.35Z" transform="translate(-15.16 -2.24)"/><path class="cls-1" d="M389.79,69.81c2.65.79,4.48,8.6,1,11-2.4,1.65-6.89.44-8-2-1.66-3.63,4.22-9.83,7-9" transform="translate(-15.16 -2.24)"/><path class="cls-1" d="M535.28,464.6c-.24,2.07-11.53,5.44-16,0-3-3.66-2-10.26,0-11,1.45-.52,2.63,2.22,8,6S535.41,463.53,535.28,464.6Z" transform="translate(-15.16 -2.24)"/><path class="cls-1" d="M615.43,184.35c-2.39-1.64-7.1-4.09-8-3-2,2.4,14.49,21.58,17,20" transform="translate(-15.16 -2.24)"/><path class="cls-1" d="M597.43,438.31c-1.41.44.89,3.95,2.46,10.79l.32,1.37c.91,4.29.52,5.2,1.22,5.36,1.52.34,7.61-3.13,8-7.35C610,442.64,599.39,437.71,597.43,438.31Z" transform="translate(-15.16 -2.24)"/><path class="cls-1" d="M598.74,90.81c-1.66-3.63,4.23-9.83,7-9s4.48,8.6,1,11C604.34,94.46,599.85,93.25,598.74,90.81Z" transform="translate(-15.16 -2.24)"/></svg>